<svg width="169" height="32" viewBox="0 0 169 32" fill="none" xmlns="http://www.w3.org/2000/svg">
<g clip-path="url(#clip0_3441_382)">
<path d="M5.24773 15.8371L22.8482 8.54683C26.0882 7.20472 27.6269 3.49016 26.2848 0.25L8.6844 7.5403C5.44425 8.88241 3.90564 12.5971 5.24773 15.8371Z" fill="#C11718"/>
<path d="M18.6714 20.5859C21.9114 19.2438 23.4501 15.5292 22.108 12.2891L4.50753 19.5794C1.2675 20.9214 -0.271112 24.6361 1.07097 27.8762L18.6714 20.5859Z" fill="#E03713"/>
<path d="M33.5756 17.8438L10.1084 27.5641C11.4506 30.8043 15.1652 32.3429 18.4052 31.0008L30.1389 26.1405C33.3791 24.7985 34.9176 21.0839 33.5756 17.8438Z" fill="#ED6A25"/>
<path d="M54.1374 17.3C54.0246 14.1035 52.033 12.391 49.6655 12.391C46.8845 12.391 44.6295 14.1035 44.0659 17.3H54.1374ZM49.703 9.46094C55.0392 9.46094 57.8956 13.4948 57.8956 18.4798C57.8956 18.9745 57.7828 20.0018 57.7828 20.0018H43.9155C44.1409 24.1118 47.0723 26.4331 50.4545 26.4331C53.7244 26.4331 56.0168 24.1878 56.0168 24.1878L57.5948 26.8136C57.5948 26.8136 54.7766 29.6297 50.2666 29.6297C44.2538 29.6297 40.1572 25.2534 40.1572 19.5453C40.1572 13.4185 44.2913 9.46094 49.703 9.46094Z" fill="#1B1B1B"/>
<path d="M60.6381 12.8785H58.2705V9.91016H60.6381V9.26344C60.6381 2.90837 65.4108 2.10938 67.8165 2.10938C68.6431 2.10938 69.2066 2.22336 69.2066 2.22336V5.38188C69.2066 5.38188 68.8311 5.30591 68.2672 5.30591C66.8395 5.30591 64.284 5.76242 64.284 9.33945V9.91016H68.7935V12.8785H64.284V29.1656H60.6381V12.8785Z" fill="#1B1B1B"/>
<path d="M69.9579 12.8785H67.5903V9.91016H69.9579V9.26344C69.9579 2.90837 74.7307 2.10938 77.1364 2.10938C77.963 2.10938 78.5264 2.22336 78.5264 2.22336V5.38188C78.5264 5.38188 78.151 5.30591 77.587 5.30591C76.1593 5.30591 73.6033 5.76242 73.6033 9.33945V9.91016H78.1134V12.8785H73.6033V29.1656H69.9579V12.8785Z" fill="#1B1B1B"/>
<path d="M91.642 17.3C91.5292 14.1035 89.5376 12.391 87.17 12.391C84.3889 12.391 82.1341 14.1035 81.5702 17.3H91.642ZM87.2071 9.46094C92.5438 9.46094 95.4002 13.4948 95.4002 18.4798C95.4002 18.9745 95.2874 20.0018 95.2874 20.0018H81.4198C81.6454 24.1118 84.5769 26.4331 87.9591 26.4331C91.2285 26.4331 93.5214 24.1878 93.5214 24.1878L95.0994 26.8136C95.0994 26.8136 92.2812 29.6297 87.7711 29.6297C81.7581 29.6297 77.6616 25.2534 77.6616 19.5453C77.6616 13.4185 81.7957 9.46094 87.2071 9.46094Z" fill="#1B1B1B"/>
<path d="M106.637 9.46094C108.929 9.46094 113.476 10.4122 113.476 13.685V15.6637H110.169V14.5982C110.169 13.2282 108.027 12.6195 106.637 12.6195C102.916 12.6195 100.135 15.4353 100.135 19.507C100.135 23.8834 103.292 26.3569 106.824 26.3569C110.394 26.3569 112.725 23.6931 112.725 23.6931L114.303 26.3189C114.303 26.3189 111.597 29.6294 106.562 29.6294C100.586 29.6294 96.4146 25.3294 96.4146 19.5451C96.4146 13.8753 100.511 9.46094 106.637 9.46094Z" fill="#1B1B1B"/>
<path d="M116.632 12.8826H114.151V9.91429H116.707V4.625H120.278V9.91429H124.825V12.8826H120.278V21.7112C120.278 25.5544 122.908 26.0492 124.298 26.0492C124.825 26.0492 125.163 25.9732 125.163 25.9732V29.2457C125.163 29.2457 124.674 29.3217 123.885 29.3217C121.48 29.3217 116.632 28.5607 116.632 22.1297V12.8826Z" fill="#1B1B1B"/>
<path d="M128.057 2.30469H131.326V6.14799H128.057V2.30469ZM127.982 13.9111C127.982 13.3403 127.681 13.0741 127.155 13.0741H125.614V9.91524H129.184C130.875 9.91524 131.59 10.6385 131.59 12.3508V25.1749C131.59 25.7459 131.89 26.0122 132.416 26.0122H133.957V29.1707H130.387C128.696 29.1707 127.982 28.4477 127.982 26.7352V13.9111Z" fill="#1B1B1B"/>
<path d="M134.407 13.8336C134.182 13.2629 133.844 13.0726 133.242 13.0726H132.866V9.91406H134.745C136.436 9.91406 137.076 10.3326 137.639 11.8549L141.735 22.9284C142.111 23.994 142.412 25.44 142.412 25.44H142.487C142.487 25.44 142.788 23.994 143.163 22.9284L147.222 11.8549C147.786 10.3326 148.462 9.91406 150.116 9.91406H151.883V13.0726H151.507C150.867 13.0726 150.491 13.2629 150.266 13.8336L144.479 29.1693H140.27L134.407 13.8336Z" fill="#1B1B1B"/>
<path d="M164.66 17.3C164.547 14.1035 162.555 12.391 160.188 12.391C157.406 12.391 155.151 14.1035 154.588 17.3H164.66ZM160.225 9.46094C165.561 9.46094 168.418 13.4948 168.418 18.4798C168.418 18.9745 168.305 20.0018 168.305 20.0018H154.437C154.663 24.1118 157.594 26.4331 160.977 26.4331C164.246 26.4331 166.538 24.1878 166.538 24.1878L168.117 26.8136C168.117 26.8136 165.299 29.6297 160.789 29.6297C154.776 29.6297 150.679 25.2534 150.679 19.5453C150.679 13.4185 154.813 9.46094 160.225 9.46094Z" fill="#1B1B1B"/>
</g>
<defs>
<clipPath id="clip0_3441_382">
<rect width="168.169" height="31.5" fill="white" transform="translate(0.585938 0.25)"/>
</clipPath>
</defs>
</svg>
